<?xml version="1.0" encoding="UTF-8" standalone="no"?>
<!-- Created with Inkscape (http://www.inkscape.org/) -->

<svg
   width="1024"
   height="1024"
   viewBox="0 0 270.93334 270.93333"
   version="1.1"
   id="svg1"
   xml:space="preserve"
   inkscape:version="1.4 (e7c3feb1, 2024-10-09)"
   sodipodi:docname="favicon.svg"
   xmlns:inkscape="http://www.inkscape.org/namespaces/inkscape"
   xmlns:sodipodi="http://sodipodi.sourceforge.net/DTD/sodipodi-0.dtd"
   xmlns="http://www.w3.org/2000/svg"
   xmlns:svg="http://www.w3.org/2000/svg"><sodipodi:namedview
     id="namedview1"
     pagecolor="#ffffff"
     bordercolor="#000000"
     borderopacity="0.25"
     inkscape:showpageshadow="2"
     inkscape:pageopacity="0.0"
     inkscape:pagecheckerboard="0"
     inkscape:deskcolor="#d1d1d1"
     inkscape:document-units="mm"
     inkscape:zoom="0.28736996"
     inkscape:cx="539.3744"
     inkscape:cy="431.49952"
     inkscape:window-width="1424"
     inkscape:window-height="825"
     inkscape:window-x="8"
     inkscape:window-y="38"
     inkscape:window-maximized="0"
     inkscape:current-layer="layer1" /><defs
     id="defs1" /><g
     inkscape:label="Layer 1"
     inkscape:groupmode="layer"
     id="layer1"><path
       style="fill:#00a9b8;fill-opacity:1;stroke-width:1.79384"
       d="m 57.095602,219.86258 c -0.23214,-0.35089 0.304205,-0.51659 1.672101,-0.51659 18.444984,0 52.863817,-21.21695 77.395427,-47.70919 14.5347,-15.69635 30.04364,-38.16252 36.01429,-52.17007 l 0.63044,-1.47906 -1.35786,-1.50276 c -8.8091,-9.74906 3.00822,-23.568873 14.50752,-16.965881 9.09217,5.220821 6.43498,18.414851 -4.04164,20.068421 -1.01802,0.16073 -1.85094,0.5407 -1.85094,0.84448 0,1.40562 -4.86802,12.31799 -8.82432,19.78103 -20.80976,39.25476 -57.40046,70.1265 -93.068213,78.52208 -5.628074,1.32475 -20.422738,2.11623 -21.076805,1.12754 z m -5.194288,-6.29379 c -26.052347,-6.46928 -8.979533,-55.19014 35.993611,-102.71532 1.910069,-2.01848 3.866684,-4.08912 4.34802,-4.60145 l 0.875164,-0.93151 -0.753248,-2.27968 c -2.980663,-9.020899 7.426007,-17.12549 16.483939,-12.837454 11.44445,5.417816 6.03545,21.373724 -6.86587,20.253564 l -3.289307,-0.2856 -4.671174,5.84597 c -28.358056,35.49016 -40.52238,69.95882 -28.421046,80.5335 8.176753,7.14521 29.147513,1.68079 49.920817,-13.00802 4.49765,-3.18029 4.44112,-2.59353 -0.13567,1.40803 -23.443784,20.4973 -49.282301,32.14483 -63.485254,28.61797 z M 167.15699,182.45294 c -13.66895,-3.43402 -9.7702,-22.32327 4.37696,-21.20607 l 3.55889,0.28103 4.54239,-5.79596 c 39.38654,-50.25624 39.60407,-97.71412 0.36328,-79.25291 -4.86397,2.288307 -4.74741,1.634237 0.25118,-1.409655 19.49966,-11.874273 38.13789,-12.406125 44.62381,-1.27335 9.72495,16.69241 -5.66772,50.780175 -39.1793,86.764335 l -5.16651,5.54771 0.81596,2.33053 c 2.9225,8.34715 -5.12014,16.29211 -14.18666,14.01434 z M 91.023208,173.67041 C 79.807111,170.32925 80.799144,155.08822 92.4128,152.32152 l 1.964206,-0.46795 1.890433,-4.90281 C 123.19869,77.104734 214.70001,22.207999 230.10618,66.653397 c 1.8378,5.301892 1.47185,7.58459 -0.61713,3.849602 -17.41097,-31.129714 -89.41364,14.076877 -123.488,77.531471 l -3.43646,6.39951 0.88404,0.91747 c 8.18445,8.49415 -0.82372,21.77498 -12.425422,18.31896 z"
       id="path6"
       sodipodi:nodetypes="sssscsssssssssscssscsssssssscssssscsssscsscscss" /></g></svg>
